<?xml version="1.0" encoding="utf-8"?>
<!-- Generator: Adobe Illustrator 28.2.0, SVG Export Plug-In . SVG Version: 6.00 Build 0)  -->
<svg version="1.1" id="Camada_1" xmlns="http://www.w3.org/2000/svg" xmlns:xlink="http://www.w3.org/1999/xlink" x="0px" y="0px"
	 viewBox="0 0 689.26 234.09" style="enable-background:new 0 0 689.26 234.09;" xml:space="preserve">
<style type="text/css">
	.st0{fill:#14B4BC;}
	.st1{fill:#11B5C0;}
	.st2{fill:#35B9C9;}
	.st3{fill:#27B7C1;}
	.st4{fill:#4E8087;}
	.st5{fill:#0BB1A7;}
</style>
<g>
	<path class="st0" d="M61.11,114.06c0,11.71,0,23.41,0,35.12c-0.02,0.72-0.04,4.42,2.85,7.47c2.67,2.82,6,3.17,6.79,3.24
		c10.51,0,21.02,0,31.53,0c0.62,0.01,4.59,0.03,7.59-3.18c2.71-2.9,2.7-6.39,2.69-7.1c-0.17-12.89-0.34-25.78-0.51-38.66
		c12.8,0,25.61,0,38.41,0c0.55,0.04,4.46,0.23,7.32-2.82c2.23-2.37,2.41-5.19,2.44-5.94c0-11.98,0-23.96,0-35.94
		c0.01-0.35,0.06-2.2-1.37-3.73c-1.58-1.69-3.68-1.64-3.99-1.63c-14.51,0-29.02,0-43.52,0c-3.43,2.6-7.61,6.47-11,12.01
		C93.71,83.74,96.49,90.51,89,100.41c-4.97,6.57-10.7,9.53-12.12,10.24C70.42,113.85,64.39,114.14,61.11,114.06z"/>
	<path class="st1" d="M153.29,156.81c9.29-8.71,17.21-15.28,22.47-19.49c22.22-17.77,33.21-22.39,47.41-39.03
		c9.05-10.61,11.72-17.08,13.06-21.41c1.1-3.53,4.65-15.6,0.06-29.65c-6.37-19.47-23.48-27.72-26.12-28.94
		c-18.36-8.49-41.29-4.43-58.65,10.12c-2.66-2.47-7.47-6.29-14.5-8.62c-10.21-3.39-19.03-1.62-22.73-0.65
		c5.74,2.64,12.79,6.5,20.17,12.12c7.22,5.5,12.73,11.14,16.76,15.88c1.57-2.26,13.42-18.74,34.32-19.94
		c3.21-0.19,18.45-1.06,30.35,10.41c8.81,8.49,12,20.09,11.56,29.56c-0.7,14.95-10.51,25.23-24.09,39.44
		c-10.51,11-14.39,11.88-27.35,24.53C165.5,141.42,157.93,150.72,153.29,156.81z"/>
	<path class="st2" d="M111.29,21.18c0,12.18,0,24.35,0,36.53c-2.07,1.13-5.21,3.08-8.32,6.21c-11.73,11.77-8.22,25.2-18.09,36.53
		c-2.86,3.29-7.77,7.45-16.5,10.15c-15.26,0.09-30.53,0.18-45.79,0.26c-0.81-0.15-2.18-0.52-3.62-1.5
		c-1.44-0.98-2.29-2.13-2.74-2.82c5.88-0.06,16.61-0.97,28.15-6.97c2.03-1.05,14.03-7.48,23.03-20.65
		c0.74-1.08,2.46-4.13,5.91-10.24c9.87-17.47,8.52-16.32,11.82-21.44c9.61-14.91,19.03-21.53,21.79-23.38
		C108.72,22.66,110.26,21.76,111.29,21.18z"/>
	<path class="st3" d="M109.53,17.35c-3.33,1.94-8.19,5.12-13.29,9.88c-9,8.4-12.11,15.54-20.12,29.18
		c-10.69,18.2-16.04,27.31-23.18,33.29c-3.71,3.11-14.01,11.54-29.41,13.76c-4.21,0.61-7.79,0.61-10.29,0.49c0-11.5,0-22.99,0-34.49
		c0.04-0.78,0.25-3.29,2.21-5.47c2.7-3,6.49-2.91,7.03-2.88c13.02,0,26.04,0,39.06,0c0-14.24,0-28.48,0-42.71
		c-0.04-0.42-0.19-2.61,1.41-4.46c1.95-2.26,4.81-2.08,5.11-2.06c11.51,0,23.03,0,34.54,0c0.76,0.07,2.31,0.31,3.87,1.38
		C108.52,14.69,109.29,16.66,109.53,17.35z"/>
	<g>
		<path class="st4" d="M261.79,148.24V25.04h28.69l51.04,83.78h-15.14l49.63-83.78h28.69l0.35,123.2h-32.03l-0.35-74.45h5.46
			l-37.14,62.3H325.5l-38.19-62.3h6.69v74.45H261.79z"/>
		<path class="st4" d="M449.23,149.82c-7.63,0-14.08-1.29-19.36-3.87c-5.28-2.58-9.3-6.1-12.06-10.56
			c-2.76-4.46-4.14-9.44-4.14-14.96c0-5.87,1.5-10.94,4.49-15.22c2.99-4.28,7.6-7.57,13.82-9.86c6.22-2.29,14.26-3.43,24.11-3.43
			h22.53v17.42h-17.95c-5.4,0-9.18,0.88-11.35,2.64c-2.17,1.76-3.26,4.11-3.26,7.04c0,2.93,1.11,5.28,3.34,7.04
			c2.23,1.76,5.28,2.64,9.15,2.64c3.64,0,6.95-0.91,9.94-2.73c2.99-1.82,5.19-4.6,6.6-8.36l4.58,12.32
			c-1.76,6.57-5.19,11.53-10.3,14.87C464.27,148.15,457.56,149.82,449.23,149.82z M477.39,148.24v-17.78l-2.29-4.4V93.32
			c0-5.28-1.61-9.36-4.84-12.23c-3.23-2.87-8.36-4.31-15.4-4.31c-4.58,0-9.21,0.73-13.9,2.2c-4.69,1.47-8.68,3.49-11.97,6.07
			l-11.26-22.7c5.4-3.52,11.88-6.25,19.45-8.18c7.57-1.94,15.11-2.9,22.62-2.9c15.49,0,27.48,3.55,35.99,10.65
			c8.51,7.1,12.76,18.22,12.76,33.35v52.98H477.39z"/>
		<path class="st4" d="M537.4,42.28c-6.1,0-11.03-1.7-14.78-5.1c-3.76-3.4-5.63-7.63-5.63-12.67c0-5.04,1.88-9.27,5.63-12.67
			c3.75-3.4,8.68-5.1,14.78-5.1c6.1,0,11.03,1.61,14.78,4.84c3.75,3.23,5.63,7.36,5.63,12.41c0,5.28-1.85,9.65-5.54,13.11
			C548.58,40.56,543.62,42.28,537.4,42.28z M520.68,148.24V52.84h33.44v95.39H520.68z"/>
		<path class="st4" d="M601.46,149.82c-8.1,0-15.99-0.94-23.67-2.82c-7.69-1.88-13.88-4.22-18.57-7.04l10.03-22.88
			c4.46,2.7,9.68,4.84,15.66,6.42c5.98,1.58,11.85,2.38,17.6,2.38c5.63,0,9.53-0.59,11.7-1.76c2.17-1.17,3.26-2.76,3.26-4.75
			c0-1.88-1.03-3.26-3.08-4.14c-2.05-0.88-4.75-1.55-8.1-2.02c-3.34-0.47-7.01-1-11-1.58c-3.99-0.59-8.01-1.38-12.06-2.38
			c-4.05-1-7.74-2.52-11.09-4.58c-3.34-2.05-6.01-4.84-8.01-8.36c-2-3.52-2.99-7.98-2.99-13.38c0-6.1,1.79-11.53,5.37-16.28
			c3.58-4.75,8.83-8.51,15.75-11.26c6.92-2.76,15.37-4.14,25.34-4.14c6.69,0,13.46,0.68,20.33,2.02c6.86,1.35,12.64,3.37,17.34,6.07
			l-10.03,22.7c-4.69-2.7-9.39-4.55-14.08-5.54c-4.69-1-9.15-1.5-13.38-1.5c-5.63,0-9.59,0.65-11.88,1.94
			c-2.29,1.29-3.43,2.88-3.43,4.75c0,1.88,1,3.32,2.99,4.31c1.99,1,4.66,1.76,8.01,2.29c3.34,0.53,7.01,1.06,11,1.58
			c3.99,0.53,8.01,1.32,12.06,2.38c4.05,1.06,7.74,2.61,11.09,4.66c3.34,2.05,6.01,4.81,8.01,8.27c1.99,3.46,2.99,7.89,2.99,13.29
			c0,5.87-1.79,11.15-5.37,15.84c-3.58,4.69-8.86,8.45-15.84,11.26C620.44,148.41,611.79,149.82,601.46,149.82z"/>
	</g>
	<g>
		<path class="st4" d="M665.41,67.8c-1.5,0-2.89-0.27-4.17-0.81c-1.28-0.54-2.4-1.29-3.36-2.26c-0.96-0.97-1.71-2.1-2.24-3.38
			s-0.79-2.66-0.79-4.14c0-1.48,0.27-2.86,0.81-4.14c0.54-1.28,1.29-2.4,2.25-3.38c0.96-0.97,2.08-1.73,3.38-2.26
			c1.29-0.54,2.68-0.81,4.18-0.81s2.9,0.27,4.18,0.79c1.29,0.53,2.41,1.27,3.36,2.23s1.69,2.08,2.22,3.35s0.79,2.65,0.79,4.15
			s-0.27,2.9-0.81,4.19s-1.3,2.42-2.26,3.39c-0.97,0.97-2.1,1.73-3.38,2.26C668.3,67.53,666.91,67.8,665.41,67.8z M665.41,65.85
			c1.22,0,2.35-0.23,3.39-0.68c1.04-0.45,1.95-1.06,2.73-1.84c0.78-0.78,1.38-1.7,1.82-2.76c0.43-1.06,0.65-2.2,0.65-3.42
			c0-1.22-0.22-2.35-0.65-3.4c-0.43-1.05-1.02-1.96-1.77-2.73s-1.64-1.37-2.68-1.8c-1.04-0.43-2.18-0.65-3.42-0.65
			c-1.22,0-2.35,0.22-3.41,0.66c-1.05,0.44-1.96,1.06-2.73,1.85c-0.77,0.79-1.36,1.71-1.78,2.74c-0.42,1.04-0.63,2.17-0.63,3.39
			c0,1.22,0.21,2.35,0.63,3.4c0.42,1.05,1.01,1.97,1.77,2.75c0.76,0.78,1.66,1.39,2.7,1.83C663.06,65.63,664.19,65.85,665.41,65.85z
			 M660.85,63.03V51.39h5.07c1.58,0,2.82,0.37,3.72,1.11c0.9,0.74,1.35,1.75,1.35,3.03c0,1.34-0.45,2.37-1.35,3.08
			c-0.9,0.71-2.14,1.06-3.72,1.06h-1.95v3.36H660.85z M663.94,57.33h1.77c0.7,0,1.25-0.16,1.64-0.48s0.58-0.76,0.58-1.32
			c0-0.58-0.2-1.03-0.58-1.35s-0.93-0.48-1.64-0.48h-1.77V57.33z M668.23,63.03l-2.88-4.44h3.12l2.88,4.44H668.23z"/>
	</g>
	<g>
		<path class="st5" d="M44.6,227.36c-2.71,0-5.22-0.44-7.54-1.33c-2.32-0.89-4.34-2.15-6.04-3.79c-1.7-1.64-3.03-3.56-3.99-5.76
			c-0.95-2.21-1.43-4.63-1.43-7.27c0-2.64,0.48-5.06,1.43-7.27c0.95-2.21,2.29-4.13,4.01-5.76c1.72-1.64,3.73-2.9,6.04-3.78
			c2.31-0.88,4.83-1.33,7.57-1.33c3.04,0,5.79,0.53,8.25,1.58c2.46,1.05,4.52,2.6,6.19,4.64l-5.21,4.81
			c-1.2-1.37-2.54-2.4-4.01-3.08c-1.47-0.68-3.08-1.03-4.81-1.03c-1.64,0-3.14,0.27-4.51,0.8c-1.37,0.53-2.56,1.3-3.56,2.31
			c-1,1-1.78,2.19-2.33,3.56c-0.55,1.37-0.83,2.89-0.83,4.56s0.28,3.19,0.83,4.56c0.55,1.37,1.33,2.56,2.33,3.56
			c1,1,2.19,1.77,3.56,2.31c1.37,0.54,2.87,0.8,4.51,0.8c1.74,0,3.34-0.34,4.81-1.03c1.47-0.68,2.81-1.73,4.01-3.13l5.21,4.81
			c-1.67,2.04-3.73,3.59-6.19,4.66C50.44,226.82,47.67,227.36,44.6,227.36z"/>
		<path class="st5" d="M85.95,220.24h19.1v6.52H77.88v-35.09h26.52v6.52H85.95V220.24z M85.35,205.8h16.89v6.32H85.35V205.8z"/>
		<path class="st5" d="M124.85,226.76v-35.09h6.72l20.7,25.26h-3.26v-25.26h8.02v35.09h-6.67l-20.75-25.26h3.26v25.26H124.85z"/>
		<path class="st5" d="M185.95,226.76v-28.47h-11.23v-6.62h30.58v6.62h-11.23v28.47H185.95z"/>
		<path class="st5" d="M222.99,226.76v-35.09h15.19c3.14,0,5.85,0.51,8.12,1.53c2.27,1.02,4.03,2.48,5.26,4.39
			c1.24,1.9,1.85,4.18,1.85,6.82c0,2.61-0.62,4.85-1.85,6.74c-1.24,1.89-2.99,3.33-5.26,4.34c-2.27,1-4.98,1.5-8.12,1.5H227.5
			l3.61-3.56v13.33H222.99z M231.11,214.33l-3.61-3.81h10.23c2.51,0,4.38-0.54,5.61-1.63c1.24-1.08,1.85-2.58,1.85-4.49
			c0-1.94-0.62-3.44-1.85-4.51c-1.24-1.07-3.11-1.6-5.61-1.6H227.5l3.61-3.86V214.33z M245.3,226.76l-8.77-12.73h8.67l8.87,12.73
			H245.3z"/>
		<path class="st5" d="M290.21,227.36c-2.77,0-5.34-0.45-7.69-1.35s-4.39-2.17-6.12-3.81c-1.72-1.64-3.06-3.56-4.01-5.76
			c-0.95-2.21-1.43-4.61-1.43-7.22s0.48-5.01,1.43-7.22c0.95-2.21,2.3-4.13,4.04-5.76c1.74-1.64,3.78-2.91,6.12-3.81
			c2.34-0.9,4.88-1.35,7.62-1.35c2.77,0,5.32,0.45,7.64,1.35c2.32,0.9,4.34,2.17,6.06,3.81c1.72,1.64,3.07,3.55,4.04,5.74
			c0.97,2.19,1.45,4.6,1.45,7.24c0,2.61-0.48,5.02-1.45,7.24c-0.97,2.22-2.31,4.14-4.04,5.76c-1.72,1.62-3.74,2.88-6.06,3.78
			C295.48,226.91,292.95,227.36,290.21,227.36z M290.16,220.44c1.57,0,3.02-0.27,4.34-0.8c1.32-0.53,2.48-1.3,3.48-2.31
			c1-1,1.78-2.19,2.33-3.56c0.55-1.37,0.83-2.89,0.83-4.56s-0.28-3.19-0.83-4.56c-0.55-1.37-1.32-2.56-2.31-3.56
			c-0.99-1-2.15-1.77-3.48-2.31c-1.34-0.53-2.79-0.8-4.36-0.8s-3.02,0.27-4.34,0.8c-1.32,0.53-2.48,1.3-3.48,2.31
			c-1,1-1.78,2.19-2.33,3.56c-0.55,1.37-0.83,2.89-0.83,4.56c0,1.64,0.28,3.15,0.83,4.54c0.55,1.39,1.32,2.58,2.31,3.58
			c0.98,1,2.15,1.77,3.48,2.31C287.14,220.17,288.59,220.44,290.16,220.44z"/>
		<path class="st5" d="M373.12,227.36c-2.71,0-5.22-0.44-7.54-1.33c-2.32-0.89-4.34-2.15-6.04-3.79c-1.7-1.64-3.03-3.56-3.98-5.76
			c-0.95-2.21-1.43-4.63-1.43-7.27c0-2.64,0.48-5.06,1.43-7.27c0.95-2.21,2.29-4.13,4.01-5.76c1.72-1.64,3.73-2.9,6.04-3.78
			c2.3-0.88,4.83-1.33,7.57-1.33c3.04,0,5.79,0.53,8.25,1.58c2.46,1.05,4.52,2.6,6.19,4.64l-5.21,4.81c-1.2-1.37-2.54-2.4-4.01-3.08
			s-3.07-1.03-4.81-1.03c-1.64,0-3.14,0.27-4.51,0.8c-1.37,0.53-2.56,1.3-3.56,2.31c-1,1-1.78,2.19-2.33,3.56
			c-0.55,1.37-0.83,2.89-0.83,4.56s0.28,3.19,0.83,4.56s1.33,2.56,2.33,3.56c1,1,2.19,1.77,3.56,2.31c1.37,0.54,2.87,0.8,4.51,0.8
			c1.74,0,3.34-0.34,4.81-1.03c1.47-0.68,2.81-1.73,4.01-3.13l5.21,4.81c-1.67,2.04-3.73,3.59-6.19,4.66
			C378.96,226.82,376.19,227.36,373.12,227.36z"/>
		<path class="st5" d="M406.4,226.76v-35.09h8.12v28.47h17.59v6.62H406.4z"/>
		<path class="st5" d="M449.51,188.81l6.77-7.22h8.42l-9.07,7.22H449.51z M450.01,226.76v-35.09h8.12v35.09H450.01z"/>
		<path class="st5" d="M479.78,226.76v-35.09h6.72l20.7,25.26h-3.26v-25.26h8.02v35.09h-6.67l-20.75-25.26h3.26v25.26H479.78z"/>
		<path class="st5" d="M533.62,226.76v-35.09h8.12v35.09H533.62z"/>
		<path class="st5" d="M580.18,227.36c-2.71,0-5.22-0.44-7.54-1.33c-2.32-0.89-4.33-2.15-6.04-3.79c-1.7-1.64-3.03-3.56-3.98-5.76
			c-0.95-2.21-1.43-4.63-1.43-7.27c0-2.64,0.48-5.06,1.43-7.27c0.95-2.21,2.29-4.13,4.01-5.76c1.72-1.64,3.73-2.9,6.04-3.78
			c2.31-0.88,4.83-1.33,7.57-1.33c3.04,0,5.79,0.53,8.25,1.58s4.52,2.6,6.19,4.64l-5.21,4.81c-1.2-1.37-2.54-2.4-4.01-3.08
			c-1.47-0.68-3.08-1.03-4.81-1.03c-1.64,0-3.14,0.27-4.51,0.8c-1.37,0.53-2.56,1.3-3.56,2.31c-1,1-1.78,2.19-2.33,3.56
			c-0.55,1.37-0.83,2.89-0.83,4.56s0.28,3.19,0.83,4.56c0.55,1.37,1.33,2.56,2.33,3.56c1,1,2.19,1.77,3.56,2.31
			c1.37,0.54,2.87,0.8,4.51,0.8c1.74,0,3.34-0.34,4.81-1.03c1.47-0.68,2.81-1.73,4.01-3.13l5.21,4.81
			c-1.67,2.04-3.73,3.59-6.19,4.66C586.02,226.82,583.26,227.36,580.18,227.36z"/>
		<path class="st5" d="M629.76,227.36c-2.77,0-5.34-0.45-7.69-1.35c-2.36-0.9-4.39-2.17-6.12-3.81c-1.72-1.64-3.06-3.56-4.01-5.76
			c-0.95-2.21-1.43-4.61-1.43-7.22s0.48-5.01,1.43-7.22c0.95-2.21,2.3-4.13,4.04-5.76c1.74-1.64,3.78-2.91,6.12-3.81
			c2.34-0.9,4.88-1.35,7.62-1.35c2.77,0,5.32,0.45,7.64,1.35s4.34,2.17,6.07,3.81c1.72,1.64,3.07,3.55,4.04,5.74
			c0.97,2.19,1.45,4.6,1.45,7.24c0,2.61-0.49,5.02-1.45,7.24c-0.97,2.22-2.31,4.14-4.04,5.76c-1.72,1.62-3.74,2.88-6.07,3.78
			S632.5,227.36,629.76,227.36z M629.71,220.44c1.57,0,3.01-0.27,4.34-0.8c1.32-0.53,2.48-1.3,3.48-2.31c1-1,1.78-2.19,2.33-3.56
			c0.55-1.37,0.83-2.89,0.83-4.56s-0.28-3.19-0.83-4.56c-0.55-1.37-1.32-2.56-2.31-3.56c-0.99-1-2.15-1.77-3.48-2.31
			s-2.79-0.8-4.36-0.8c-1.57,0-3.02,0.27-4.34,0.8c-1.32,0.53-2.48,1.3-3.48,2.31c-1,1-1.78,2.19-2.33,3.56
			c-0.55,1.37-0.83,2.89-0.83,4.56c0,1.64,0.28,3.15,0.83,4.54c0.55,1.39,1.32,2.58,2.31,3.58c0.99,1,2.15,1.77,3.48,2.31
			C626.68,220.17,628.14,220.44,629.71,220.44z"/>
	</g>
</g>
</svg>
